<?xml version="1.0" encoding="UTF-8"?>
<svg width="26px" height="26px" viewBox="0 0 26 26" version="1.1" xmlns="http://www.w3.org/2000/svg" xmlns:xlink="http://www.w3.org/1999/xlink">
    <title>表情</title>
    <g id="页面-1" stroke="none" stroke-width="1" fill="none" fill-rule="evenodd">
        <g id="单聊" transform="translate(-337.000000, -740.000000)" fill="#1D6BED" fill-rule="nonzero">
            <g id="表情" transform="translate(337.000000, 740.000000)">
                <path d="M12.9049375,0.756302083 C6.10879995,0.76309483 0.601136496,6.27075828 0.59434375,13.0668958 C0.601136496,19.8630334 6.10879995,25.3706968 12.9049375,25.3774896 C19.7010751,25.3706968 25.2087385,19.8630334 25.2155313,13.0668958 C25.2087385,6.27075828 19.7010751,0.76309483 12.9049375,0.756302083 L12.9049375,0.756302083 Z M12.9049375,23.6170729 C7.08105066,23.6102823 2.361551,18.8907827 2.35476042,13.0668958 C2.361551,7.24300899 7.08105066,2.52350933 12.9049375,2.51671875 C18.7288243,2.52350933 23.448324,7.24300899 23.4551146,13.0668958 C23.448324,18.8907827 18.7288243,23.6102823 12.9049375,23.6170729 Z" id="形状"></path>
                <path d="M7.70466667,10.0425 C7.70466667,10.5142022 7.95631679,10.9500731 8.36482291,11.1859242 C8.77332902,11.4217753 9.27662931,11.4217753 9.68513543,11.1859242 C10.0936415,10.9500731 10.3452917,10.5142022 10.3452917,10.0425 C10.3452917,9.31331154 9.75416763,8.7221875 9.02497917,8.7221875 C8.29579071,8.7221875 7.70466667,9.31331154 7.70466667,10.0425 L7.70466667,10.0425 Z" id="路径"></path>
                <path d="M15.0772917,10.0425 C15.0772917,10.7716885 15.6684157,11.3628125 16.3976042,11.3628125 C17.1267926,11.3628125 17.7179167,10.7716885 17.7179167,10.0425 C17.7179167,9.31331154 17.1267926,8.7221875 16.3976042,8.7221875 C15.6684157,8.7221875 15.0772917,9.31331154 15.0772917,10.0425 L15.0772917,10.0425 Z" id="路径"></path>
                <path d="M17.3253438,15.7796979 C17.1290752,15.6536586 16.8907372,15.6108529 16.662876,15.6607182 C16.4350148,15.7105834 16.2363411,15.8490251 16.1106563,16.0455208 C15.5385208,16.9380521 14.2410938,17.5154687 12.8081146,17.5154687 C11.3751354,17.5154687 10.0794688,16.9398125 9.50733333,16.0472812 C9.34136926,15.7745829 9.04076603,15.613118 8.72176851,15.6253257 C8.402771,15.6375334 8.11538709,15.8215 7.97074967,16.1060848 C7.82611226,16.3906695 7.84689554,16.7312591 8.0250625,16.9961458 C8.92639583,18.4027187 10.7589896,19.2758854 12.8081146,19.2758854 C14.859,19.2758854 16.6915938,18.4027187 17.5929271,16.9943854 C17.8540507,16.5849945 17.7343184,16.041473 17.3253438,15.7796979 L17.3253438,15.7796979 Z" id="路径"></path>
            </g>
        </g>
    </g>
</svg>