<?xml version="1.0" encoding="UTF-8"?>
<svg width="27px" height="27px" viewBox="0 0 27 27" version="1.1" xmlns="http://www.w3.org/2000/svg" xmlns:xlink="http://www.w3.org/1999/xlink">
    <title>键盘</title>
    <g id="页面-1" stroke="none" stroke-width="1" fill="none" fill-rule="evenodd">
        <g id="触发按住说话" transform="translate(-9.000000, -740.000000)" fill="#1D6BED" fill-rule="nonzero">
            <g id="键盘" transform="translate(9.749784, 740.712031)">
                <path d="M13.0000599,0 C5.82034173,0 0,5.82037165 0,13.0000898 C0,20.1798079 5.82034173,26 13.0000599,26 C20.179778,26 26,20.1798079 26,13.0000898 C26,5.82037165 20.179778,0 13.0000599,0 Z M13.0000599,24.4284988 C6.6881714,24.4284988 1.57150124,19.3119483 1.57150124,13.0000599 C1.57150124,6.68814148 6.6881714,1.57147133 13.0000599,1.57147133 C19.3119782,1.57147133 24.4285287,6.68814148 24.4285287,13.0000599 C24.4285287,19.3119483 19.3119782,24.4284988 13.0000599,24.4284988 Z M10.4167689,10.4167689 L11.4500434,10.4167689 C11.7352703,10.4167689 11.9667854,10.1852838 11.9667854,9.90005686 L11.9667854,7.83344805 C11.9667854,7.54834079 11.7352703,7.31688562 11.4500434,7.31688562 L10.4167689,7.31688562 C10.1315419,7.31688562 9.90002692,7.54837071 9.90002692,7.83344805 L9.90002692,9.90005686 C9.90005686,10.1852838 10.1315419,10.4167689 10.4167689,10.4167689 Z M10.4167689,15.0666687 L11.4500434,15.0666687 C11.7352703,15.0666687 11.9667854,14.8351836 11.9667854,14.5499566 L11.9667854,12.4833478 C11.9667854,12.1981208 11.7352703,11.9667854 11.4500434,11.9667854 L10.4167689,11.9667854 C10.1315419,11.9667854 9.90002692,12.1981208 9.90002692,12.4833478 L9.90002692,14.5499566 C9.90005686,14.8351836 10.1315419,15.0666687 10.4167689,15.0666687 Z M14.5499267,10.4167689 L15.5832311,10.4167689 C15.8684581,10.4167689 16.0999431,10.1852838 16.0999431,9.90005686 L16.0999431,7.83344805 C16.0999431,7.54834079 15.868458,7.31688562 15.5832311,7.31688562 L14.5499267,7.31688562 C14.2648194,7.31688562 14.0333642,7.54837071 14.0333642,7.83344805 L14.0333642,9.90005686 C14.0333642,10.1852838 14.2648493,10.4167689 14.5499267,10.4167689 Z M14.5499267,15.0666687 L15.5832311,15.0666687 C15.8684581,15.0666687 16.0999431,14.8351836 16.0999431,14.5499566 L16.0999431,12.4833478 C16.0999431,12.1981208 15.868458,11.9667854 15.5832311,11.9667854 L14.5499267,11.9667854 C14.2648194,11.9667854 14.0333642,12.1981208 14.0333642,12.4833478 L14.0333642,14.5499566 C14.0333642,14.8351836 14.2648493,15.0666687 14.5499267,15.0666687 Z M6.2835812,10.4167689 L7.31685567,10.4167689 C7.60199288,10.4167689 7.83344802,10.1852838 7.83344802,9.90005686 L7.83344802,7.83344805 C7.83344802,7.54834079 7.60196293,7.31688562 7.31685567,7.31688562 L6.2835812,7.31688562 C5.99835422,7.31688562 5.76683922,7.54837071 5.76683922,7.83344805 L5.76683922,9.90005686 C5.76686913,10.1852838 5.99835422,10.4167689 6.2835812,10.4167689 Z M19.7165684,7.31688562 L18.683264,7.31688562 C18.398037,7.31688562 18.166552,7.54837071 18.166552,7.83344805 L18.166552,9.90005686 C18.166552,10.1852838 18.3980371,10.4167689 18.683264,10.4167689 L19.7165684,10.4167689 C20.0017954,10.4167689 20.2331309,10.1852838 20.2331309,9.90005686 L20.2331309,7.83344805 C20.2331309,7.54834076 20.0017954,7.31688562 19.7165684,7.31688562 Z M7.83347797,14.5499566 L7.83347797,12.4833478 C7.83347797,12.1981208 7.60199288,11.9667854 7.31688562,11.9667854 L6.28361114,11.9667854 C5.99838417,11.9667854 5.76686916,12.1981208 5.76686916,12.4833478 L5.76686916,14.5499566 C5.76686916,14.8351836 5.99838417,15.0666686 6.28361114,15.0666686 L7.31688562,15.0666686 C7.60199288,15.0666686 7.83347797,14.8351836 7.83347797,14.5499566 Z M19.7165684,11.9667854 L18.683264,11.9667854 C18.398037,11.9667854 18.166552,12.1981208 18.166552,12.4833478 L18.166552,14.5499566 C18.166552,14.8351836 18.3980371,15.0666686 18.683264,15.0666686 L19.7165684,15.0666686 C20.0017954,15.0666686 20.2331309,14.8351835 20.2331309,14.5499566 L20.2331309,12.4833478 C20.2331309,12.1981208 20.0017954,11.9667854 19.7165684,11.9667854 Z M18.683264,17.1332775 L7.31685567,17.1332775 C7.0316287,17.1332775 6.80014364,17.3647626 6.80014364,17.6499895 L6.80014364,18.1665519 C6.80014364,18.4517789 7.03162873,18.6832939 7.31685567,18.6832939 L18.683264,18.6832939 C18.9683713,18.6832939 19.1998564,18.4517789 19.1998564,18.1665519 L19.1998564,17.6499895 C19.1998564,17.3647326 18.9683713,17.1332775 18.683264,17.1332775 Z" id="形状"></path>
            </g>
        </g>
    </g>
</svg>