<?xml version="1.0" encoding="UTF-8"?>
<svg width="26px" height="26px" viewBox="0 0 26 26" version="1.1" xmlns="http://www.w3.org/2000/svg" xmlns:xlink="http://www.w3.org/1999/xlink">
    <title>语音</title>
    <g id="页面-1" stroke="none" stroke-width="1" fill="none" fill-rule="evenodd">
        <g id="单聊" transform="translate(-10.000000, -741.000000)" fill="#1D6BED" fill-rule="nonzero">
            <g id="语音" transform="translate(10.000000, 741.000000)">
                <path d="M13.0000151,26.0000303 C5.84528415,25.9409393 0.0590840531,20.1547461 0,13.0000151 C0.0590909086,5.84528415 5.84528415,0.0590840531 13.0000151,0 C20.1547461,0.0590909086 25.9409462,5.84528415 26.0000303,13.0000151 C25.9409393,20.1547461 20.1547461,25.9409462 13.0000151,26.0000303 Z M13.0000151,1.736086 L13.0000147,1.736086 C6.77846644,1.736086 1.7349176,6.77963484 1.7349176,13.0011831 C1.7349176,19.2227314 6.77846644,24.2662802 13.0000147,24.2662802 C19.221563,24.2662802 24.2651127,19.2227314 24.2651127,13.0011831 C24.2651127,13.0007892 24.2651127,13.0003953 24.2651127,13.0000013 L24.2651127,12.9991593 C24.2672588,6.78152116 19.2286218,1.7393942 13.0109837,1.73726139 C13.0070434,1.73726003 13.003103,1.73726074 12.9991627,1.73726351 L13.0000151,1.736086 Z M14.7207449,21.2727474 L13.5188351,19.9290181 C15.421565,18.1704715 16.7239228,15.6886518 16.7239228,12.8972033 C16.7239228,10.2073935 15.622466,7.7255586 13.8190034,6.07100199 L15.0209132,4.72727269 L15.0209134,4.72727269 C17.2083335,6.88151506 18.4360072,9.82591946 18.4269174,12.8960051 C18.4269174,16.2050929 17.0240964,19.2045671 14.7207197,21.2727474 L14.7207449,21.2727474 Z M10.0135409,16.4119351 C11.2154558,15.688662 12.016729,14.4477522 12.016729,12.896015 C12.016729,11.5522857 11.3159089,10.3113733 10.3149077,9.58692717 L11.6160899,8.24319787 C12.9184553,9.27729068 13.8190008,11.0358398 13.8190008,12.8972033 C13.8190008,14.8613862 12.8179997,16.6199303 11.3159063,17.7568476 L10.0135409,16.4119377 L10.0135409,16.4119351 Z M7.90990745,14.4477522 C7.20908729,14.4477522 6.60872527,13.827296 6.60872527,13.1040229 C6.60872527,12.3795666 7.20908983,11.7591129 7.90990745,11.7591129 C8.61190826,11.7591129 9.21227283,12.3795691 9.21227283,13.1040229 C9.21227283,13.827296 8.61190826,14.4477522 7.90990745,14.4477522 Z" id="形状"></path>
            </g>
        </g>
    </g>
</svg>