<?xml version="1.0" encoding="UTF-8"?>
<svg width="26px" height="26px" viewBox="0 0 26 26" version="1.1" xmlns="http://www.w3.org/2000/svg" xmlns:xlink="http://www.w3.org/1999/xlink">
    <title>加</title>
    <g id="页面-1" stroke="none" stroke-width="1" fill="none" fill-rule="evenodd">
        <g id="单聊" transform="translate(-299.000000, -740.000000)" fill="#1D6BED" fill-rule="nonzero">
            <g id="加" transform="translate(299.000000, 740.000000)">
                <path d="M13.0000151,25.5991118 C9.62115377,25.5991118 6.47136691,24.2819285 4.12334074,21.9339201 C1.71805102,19.5286303 0.400867654,16.3788511 0.400867654,12.9999897 C0.400867654,9.62112838 1.71805102,6.47134151 4.06605942,4.06605942 C6.41408051,1.66076971 9.62112838,0.400867654 12.9427338,0.400867654 C16.2643138,0.400867654 19.528638,1.71805102 21.8766641,4.06605942 C24.2819538,6.47134913 25.5418559,9.62112838 25.5418559,12.9999897 C25.5418559,16.3788511 24.2246725,19.528638 21.8766641,21.9339201 C19.528643,24.2819411 16.3215952,25.5991118 12.9999897,25.5991118 L13.0000151,25.5991118 Z M13.0000151,2.17618222 C10.1365841,2.17618222 7.38766485,3.32155719 5.3832758,5.32596909 C3.32160035,7.38764453 2.23348893,10.0792774 2.23348893,12.9427084 C2.23348893,15.8061395 3.37886389,18.5550587 5.3832758,20.5594478 C7.44495124,22.6211232 10.1365841,23.7092346 13.0000151,23.7092346 C15.8634462,23.7092346 18.6123654,22.5638597 20.6167545,20.5594478 C22.6784299,18.4977723 23.7665413,15.8061395 23.7665413,12.9427084 C23.7665413,10.0792774 22.6211664,7.33035814 20.6167545,5.32596909 C18.555079,3.32156226 15.8634462,2.17618222 13.0000151,2.17618222 Z M19.2995889,12.0836918 L13.9163131,12.0836918 L13.9163131,6.64316007 C13.9163131,6.12773994 13.5154327,5.72685959 13.0000126,5.72685959 C12.4845925,5.72685959 12.0837121,6.12773994 12.0837121,6.64316007 L12.0837121,12.0836918 L6.70043631,12.0836918 C6.18501618,12.0836918 5.78413583,12.4845721 5.78413583,12.9999923 C5.78413583,13.5154124 6.18501618,13.9162928 6.70043631,13.9162928 L12.0837121,13.9162928 L12.0837121,19.3568245 C12.0837121,19.8722446 12.4845925,20.273125 13.0000126,20.273125 C13.5154327,20.273125 13.9163131,19.8722446 13.9163131,19.3568245 L13.9163131,13.9162928 L19.2995889,13.9162928 C19.815009,13.9162928 20.2158893,13.5154124 20.2158893,12.9999923 C20.1586205,12.4845721 19.7577378,12.0836918 19.2995889,12.0836918 Z" id="形状"></path>
            </g>
        </g>
    </g>
</svg>